<svg id="Layer_5" data-name="Layer 5" xmlns="http://www.w3.org/2000/svg" viewBox="0 0 298.79 231.8"><defs><style>.cls-1{fill:#649bc7;}</style></defs><title>icon5</title><path class="cls-1" d="M237.13,67.07l-47.2-44.42H.58v199.2h134l65.19,32.61v-32.6h37.36ZM193.55,43.15l25.46,24H193.55ZM224.68,209.4H187.32v24.89l-49.8-24.91L13,209.4V35.1H181.11V79.56h43.57Z" transform="translate(-0.58 -22.65)"/><path class="cls-1" d="M299.38,48.3a24.9,24.9,0,1,0-49.81,0V210.14h8.65l-8.65,27,24.91,16.6,24.89-16.6-8.64-27h8.64ZM274.48,238.76,264.31,232l7-21.83h6.36l7,21.83Zm12.44-41.06H262V48.3a12.45,12.45,0,1,1,24.89,0Z" transform="translate(-0.58 -22.65)"/><path class="cls-1" d="M193.55,153.37H44.15a6.22,6.22,0,1,0,0,12.45H193.55a6.22,6.22,0,1,0,0-12.45Z" transform="translate(-0.58 -22.65)"/><path class="cls-1" d="M193.55,116H44.15a6.23,6.23,0,0,0,0,12.45H193.55a6.23,6.23,0,1,0,0-12.45Z" transform="translate(-0.58 -22.65)"/><path class="cls-1" d="M125.08,78.67H44.15a6.23,6.23,0,0,0,0,12.45h80.93a6.23,6.23,0,0,0,0-12.45Z" transform="translate(-0.58 -22.65)"/></svg>